# xmcd CD database file
#
# Track frame offsets:
#	182
#	22850
#	45080
#	71987
#	90985
#	114087
#	136342
#	151700
#	178697
#	202032
#
# Disc length: 3063 seconds
#
# Revision: 0
# Processed by: cddbd v1.5.2PL0 Copyright (c) Steve Scherf et al.
# Submitted via: CDex 1.51
#
DISCID=710bf50a
DTITLE=Nanã Sousa Dias - Tom Maior
DYEAR=1995
DGENRE=Jazz
TTITLE0=Samba Duma Nota Só
TTITLE1=Meditação
TTITLE2=Desafinado
TTITLE3=Insensatez
TTITLE4=Wave
TTITLE5=Amoe em Paz
TTITLE6=Corcovado
TTITLE7=Caminhos Cruzados
TTITLE8=Garota de Ipanema
TTITLE9=Chovendo na Roseira
EXTD=YEAR: 1995
EXTT0=
EXTT1=
EXTT2=
EXTT3=
EXTT4=
EXTT5=
EXTT6=
EXTT7=
EXTT8=
EXTT9=
PLAYORDER=
